<svg preserveAspectRatio="none" overflow="visible" style="display: block;" width="15.5152" height="16" viewBox="0 0 15.5152 16" fill="none" xmlns="http://www.w3.org/2000/svg">
<g id="Layers logo 1" clip-path="url(#clip0_0_24)">
<path id="Vector" d="M5.04881e-05 9.12965L0.0388384 3.31244C0.0456262 2.25934 0.782111 1.35656 1.79884 1.15534L7.41678 0.0416479C8.7666 -0.225988 10.0194 0.830497 10.0107 2.22831L9.97193 8.0465C9.96466 9.0991 9.22817 10.0014 8.21144 10.2031L2.5935 11.3168C1.24369 11.5844 -0.00916163 10.528 5.04881e-05 9.12965Z" fill="white" fill-opacity="0.2"/>
<path id="Vector_2" d="M2.75248 11.4507L2.79127 5.63248C2.79758 4.58036 3.53455 3.67806 4.55127 3.47636L10.1692 2.36315C11.519 2.09552 12.7719 3.15152 12.7627 4.54982L12.7239 10.368C12.7171 11.4206 11.9806 12.3229 10.9639 12.5246L5.34594 13.6383C3.99612 13.9055 2.74327 12.8495 2.75248 11.4516V11.4507Z" fill="white" fill-opacity="0.5"/>
<path id="Vector_3" d="M5.50497 13.7716L5.54376 7.95345C5.55055 6.90036 6.28703 5.99855 7.30376 5.79685L12.9217 4.68315C14.2715 4.41552 15.5244 5.472 15.5152 6.86982L15.4764 12.688C15.4696 13.7411 14.7331 14.6434 13.7164 14.8446L8.09842 15.9583C6.74861 16.2259 5.49576 15.1695 5.50449 13.7716H5.50497Z" fill="white" fill-opacity="0.8"/>
</g>
<defs>
<clipPath id="clip0_0_24">
<rect width="15.5152" height="16" fill="white"/>
</clipPath>
</defs>
</svg>
