<svg preserveAspectRatio="none" overflow="visible" style="display: block;" width="14.1592" height="16" viewBox="0 0 14.1592 16" fill="none" xmlns="http://www.w3.org/2000/svg">
<g id="Frame 2139">
<path id="Vector" d="M10.4936 5.77567C11.5267 6.51378 12.7923 6.94808 14.1592 6.94808V4.3191C13.9005 4.31915 13.6425 4.29219 13.3894 4.2386V6.30798C12.0226 6.30798 10.7572 5.87369 9.72381 5.13563V10.5006C9.72381 13.1844 7.54703 15.36 4.86199 15.36C3.86014 15.36 2.92896 15.0572 2.15542 14.538C3.03828 15.4403 4.2695 16 5.63162 16C8.31683 16 10.4937 13.8245 10.4937 11.1405V5.77567H10.4936ZM11.4432 3.12336C10.9153 2.54684 10.5686 1.80181 10.4936 0.978146V0.640003H9.76412C9.94774 1.68688 10.5741 2.58127 11.4432 3.12336ZM3.85371 12.4786C3.55873 12.092 3.39932 11.6191 3.40004 11.1328C3.40004 9.90537 4.39568 8.9101 5.62404 8.9101C5.85297 8.91005 6.08052 8.94508 6.29868 9.01427V6.32654C6.04373 6.29161 5.78642 6.27679 5.52921 6.28222V8.37423C5.31089 8.30504 5.08323 8.26989 4.85425 8.27011C3.62589 8.27011 2.63029 9.26527 2.63029 10.4929C2.63029 11.3609 3.12795 12.1125 3.85371 12.4786Z" fill="#F5F3EB"/>
<path id="Vector_2" d="M9.72381 5.13557C10.7572 5.87363 12.0226 6.30792 13.3894 6.30792V4.23854C12.6265 4.07612 11.9511 3.67763 11.4432 3.12336C10.574 2.58122 9.94774 1.68683 9.76412 0.640003H7.84794V11.1404C7.84361 12.3646 6.84966 13.3558 5.62394 13.3558C4.90164 13.3558 4.25995 13.0116 3.85355 12.4786C3.12784 12.1125 2.63018 11.3609 2.63018 10.493C2.63018 9.26543 3.62578 8.27017 4.85414 8.27017C5.08949 8.27017 5.31632 8.3068 5.5291 8.37428V6.28228C2.89123 6.33675 0.769744 8.49102 0.769744 11.1405C0.769744 12.4631 1.29804 13.6621 2.15548 14.5381C2.92901 15.0572 3.86019 15.36 4.86204 15.36C7.54714 15.36 9.72387 13.1844 9.72387 10.5006V5.13557H9.72381Z" fill="#F5F3EB"/>
<path id="Vector_3" d="M13.3894 4.23853V3.67899C12.7014 3.68003 12.0269 3.48746 11.4432 3.12329C11.96 3.68871 12.6404 4.07857 13.3894 4.23853ZM9.76412 0.639988C9.7466 0.53994 9.73315 0.439234 9.72381 0.338142V0H7.07809V10.5005C7.07386 11.7245 6.07997 12.7157 4.85414 12.7157C4.49425 12.7157 4.15446 12.6303 3.85355 12.4786C4.25995 13.0116 4.90164 13.3557 5.62394 13.3557C6.84955 13.3557 7.84366 12.3646 7.84794 11.1405V0.639988H9.76412ZM5.52921 6.28226V5.68659C5.30814 5.65639 5.08526 5.64123 4.8621 5.64134C2.17678 5.64129 0 7.81692 0 10.5005C0 12.183 0.855514 13.6658 2.15553 14.538C1.2981 13.662 0.769798 12.4629 0.769798 11.1404C0.769798 8.49101 2.89123 6.33674 5.52921 6.28226Z" fill="#F5F3EB"/>
</g>
</svg>
